<svg width="22" height="18" viewBox="0 0 22 18" fill="none" xmlns="http://www.w3.org/2000/svg">
<path fill-rule="evenodd" clip-rule="evenodd" d="M4.1494 5.72848L0.856796 0.199951H3.8L5.71981 3.39995H21.0662L16.7735 11.6926H7.69372L4.1494 5.72848ZM7.34505 6.06662L9.23774 9.02597H15.1254L16.7515 6.06662H7.34505Z" fill="white"/>
<path d="M11.1495 15.826C11.1495 16.9305 10.2541 17.826 9.14949 17.826C8.04492 17.826 7.14948 16.9305 7.14948 15.826C7.14948 14.7214 8.04492 13.826 9.14949 13.826C10.2541 13.826 11.1495 14.7214 11.1495 15.826Z" fill="white"/>
<path d="M14.4828 17.826C15.5874 17.826 16.4828 16.9305 16.4828 15.826C16.4828 14.7214 15.5874 13.826 14.4828 13.826C13.3782 13.826 12.4828 14.7214 12.4828 15.826C12.4828 16.9305 13.3782 17.826 14.4828 17.826Z" fill="white"/>
</svg>
