<svg width="60" height="24" viewBox="0 0 60 24" fill="none" xmlns="http://www.w3.org/2000/svg">
<path fill-rule="evenodd" clip-rule="evenodd" d="M0 23.6678H5.93935V10.0682C8.70479 14.756 11.4038 19.3312 14.1581 24.0001C16.8961 19.3747 19.6505 14.7077 22.3898 10.0654V23.6678H26.9045H28.3292H44.4299L41.6709 19.1258H28.3292V14.0678H38.8402L36.0812 9.5257H28.3293V4.58858H33.3377L30.5787 0.0465264C27.8495 0.0465264 25.1579 0.000183105 22.39 0.000183105L14.1648 14.3532L5.93951 0.000183105H0.000156708V23.6679L0 23.6678ZM60 0.0464744C50.4816 0.0464744 41.1471 0.0464744 31.6269 0.0464744L34.386 4.58853H41.1538H42.9682V19.1258L45.9334 24.0001L48.9075 19.1258V4.58853H50.4731H57.2409L59.9999 0.0464744H60Z" fill="white"/>
</svg>
