<svg width="32" height="32" viewBox="0 0 32 32" fill="none" xmlns="http://www.w3.org/2000/svg">
<path fill-rule="evenodd" clip-rule="evenodd" d="M14.6364 15.478C14.4582 15.6562 14.2674 15.814 14.0668 15.9516C14.3549 16.3305 14.6624 16.6825 14.99 17.0101C15.3175 17.3376 15.6696 17.6451 16.0484 17.9332C16.186 17.7326 16.3438 17.5418 16.522 17.3636C18.0841 15.8015 20.6168 15.8015 22.1789 17.3636C23.104 18.2887 23.5241 19.5619 23.3534 20.7646C23.3391 20.7621 23.3677 20.7671 23.3534 20.7646L22.89 23.3907C18.7263 22.6559 15.4867 21.278 13.1043 18.8957C10.722 16.5133 9.34408 13.2737 8.60931 9.11004L11.2354 8.64661C11.2329 8.63236 11.2379 8.6609 11.2354 8.64661C12.4381 8.47596 13.7113 8.89601 14.6364 9.82114C16.1985 11.3832 16.1985 13.9159 14.6364 15.478ZM11.8473 11.3168C12.0934 12.1621 12.377 12.9344 12.6999 13.6407C12.7172 13.6251 12.7341 13.609 12.7508 13.5924C13.2715 13.0717 13.2715 12.2275 12.7508 11.7068C12.5004 11.4564 12.1753 11.3264 11.8473 11.3168ZM20.6832 20.1527C20.6736 19.8247 20.5436 19.4996 20.2933 19.2492C19.7726 18.7285 18.9283 18.7285 18.4076 19.2492C18.391 19.2659 18.3749 19.2828 18.3593 19.3001C19.0656 19.623 19.838 19.9066 20.6832 20.1527Z" fill="white"/>
</svg>
