<svg width="22" height="32" viewBox="0 0 22 32" fill="none" xmlns="http://www.w3.org/2000/svg">
<path d="M14.5 20.6667C14.5 18.7337 12.933 17.1667 11 17.1667C9.067 17.1667 7.5 18.7337 7.5 20.6667C7.5 22.5997 9.067 24.1667 11 24.1667C12.933 24.1667 14.5 22.5997 14.5 20.6667Z" fill="#CBCECF"/>
<path fill-rule="evenodd" clip-rule="evenodd" d="M11 31.1667C5.20101 31.1667 0.5 26.4657 0.5 20.6667L0.5 11.3334C0.500001 5.53439 5.20101 0.833374 11 0.833374C16.799 0.833374 21.5 5.53439 21.5 11.3334V20.6667C21.5 26.4657 16.799 31.1667 11 31.1667ZM5.16667 20.6667L5.16667 11.3334C5.16667 8.11171 7.77834 5.50004 11 5.50004C14.2217 5.50004 16.8333 8.11171 16.8333 11.3334V20.6667C16.8333 23.8884 14.2217 26.5 11 26.5C7.77834 26.5 5.16667 23.8884 5.16667 20.6667Z" fill="#CBCECF"/>
</svg>
