<svg width="18" height="19" viewBox="0 0 18 19" fill="none" xmlns="http://www.w3.org/2000/svg">
<path fill-rule="evenodd" clip-rule="evenodd" d="M12.6529 15.2053C11.519 15.8216 10.2195 16.1716 8.83821 16.1716C4.41993 16.1716 0.838211 12.5899 0.838211 8.17163C0.838211 3.75335 4.41993 0.171631 8.83821 0.171631C13.2565 0.171631 16.8382 3.75335 16.8382 8.17163C16.8382 10.2403 16.0531 12.1255 14.7645 13.5456L17.3905 16.1716L15.5049 18.0572L12.6529 15.2053ZM14.1715 8.17163C14.1715 11.1171 11.7837 13.505 8.83821 13.505C5.89269 13.505 3.50488 11.1171 3.50488 8.17163C3.50488 5.22611 5.89269 2.8383 8.83821 2.8383C11.7837 2.8383 14.1715 5.22611 14.1715 8.17163Z" fill="#CBCECF"/>
</svg>
