<svg width="20" height="18" viewBox="0 0 20 18" fill="none" xmlns="http://www.w3.org/2000/svg">
<path fill-rule="evenodd" clip-rule="evenodd" d="M14.4459 11.9681C15.8089 10.7475 16.6667 8.97404 16.6667 7.00028C16.6667 3.31839 13.6819 0.333618 9.99999 0.333618C6.31809 0.333618 3.33333 3.31839 3.33333 7.00028C3.33333 8.97404 4.19106 10.7475 5.55412 11.9681C3.54028 12.8928 1.86397 14.4262 0.760857 16.3327L3.07064 17.6663C4.45397 15.2755 7.03915 13.667 10 13.667C12.9609 13.667 15.546 15.2754 16.9294 17.6663L19.2391 16.3327C18.136 14.4262 16.4597 12.8928 14.4459 11.9681ZM14 7.00028C14 9.20942 12.2091 11.0003 9.99999 11.0003C7.79085 11.0003 5.99999 9.20942 5.99999 7.00028C5.99999 4.79115 7.79085 3.00028 9.99999 3.00028C12.2091 3.00028 14 4.79115 14 7.00028Z" fill="#CBCECF"/>
</svg>
