<svg width="20" height="20" viewBox="0 0 20 20" fill="none" xmlns="http://www.w3.org/2000/svg">
<path fill-rule="evenodd" clip-rule="evenodd" d="M9.99999 0.666626C4.84533 0.666626 0.666656 4.8453 0.666656 9.99996C0.666656 13.8823 3.03703 17.2109 6.40947 18.6177C7.48503 19.0663 8.6625 19.3195 9.89752 19.3328C9.93163 19.3331 9.9658 19.3333 9.99999 19.3333C10.0342 19.3333 10.0683 19.3331 10.1024 19.3327C11.3375 19.3195 12.515 19.0663 13.5905 18.6177C16.963 17.2109 19.3333 13.8823 19.3333 9.99996C19.3333 4.8453 15.1546 0.666626 9.99999 0.666626ZM11.2452 11.3333C11.0696 12.6514 10.6372 13.8884 9.99999 14.9922C9.36278 13.8884 8.93039 12.6514 8.75477 11.3333H11.2452ZM13.9307 11.3333C13.7457 13.1013 13.197 14.7611 12.3608 16.2365C14.4744 15.436 16.0748 13.592 16.5333 11.3333H13.9307ZM16.5333 8.66663H13.9307C13.7457 6.89859 13.197 5.23878 12.3608 3.76337C14.4743 4.56386 16.0748 6.4079 16.5333 8.66663ZM11.2452 8.66663H8.75477C8.9304 7.34851 9.36278 6.11157 9.99999 5.00774C10.6372 6.11157 11.0696 7.34851 11.2452 8.66663ZM6.06933 8.66663C6.25429 6.89859 6.80296 5.23878 7.63918 3.76337C5.52563 4.56386 3.92518 6.4079 3.46668 8.66663H6.06933ZM3.46668 11.3333C3.92518 13.592 5.52562 15.436 7.63915 16.2365C6.80294 14.7611 6.25428 13.1013 6.06933 11.3333H3.46668Z" fill="#CBCECF"/>
</svg>
