<svg width="32" height="32" viewBox="0 0 32 32" fill="none" xmlns="http://www.w3.org/2000/svg">
<path fill-rule="evenodd" clip-rule="evenodd" d="M20.7911 17.3904C21.9522 16.1906 22.6667 14.556 22.6667 12.7546C22.6667 9.07266 19.6819 6.08789 16 6.08789C12.3181 6.08789 9.33337 9.07266 9.33337 12.7546C9.33337 14.556 10.0479 16.1906 11.209 17.3904L10.0182 24.5354L11.9949 25.9122L16 23.6236L20.0052 25.9122L21.9819 24.5354L20.7911 17.3904ZM20 12.7546C20 14.9637 18.2092 16.7546 16 16.7546C13.7909 16.7546 12 14.9637 12 12.7546C12 10.5454 13.7909 8.75456 16 8.75456C18.2092 8.75456 20 10.5454 20 12.7546ZM18.3548 18.9934C17.6226 19.2699 16.829 19.4212 16 19.4212C15.1711 19.4212 14.3775 19.2699 13.6453 18.9934L13.1103 22.2035L16 20.5522L18.8898 22.2035L18.3548 18.9934Z" fill="white"/>
</svg>
