<svg width="165" height="67" viewBox="0 0 165 67" fill="none" xmlns="http://www.w3.org/2000/svg">
<path fill-rule="evenodd" clip-rule="evenodd" d="M49.1378 42.6796C52.3239 42.9133 53.6602 41.6331 54.5757 39.0917L57.9955 26.0292C58.1263 25.5433 58.2852 25.3379 59.0606 25.2444L61.4714 25.0762L57.603 39.9886C56.8088 42.0536 55.0056 43.8943 53.2863 44.2493C51.6793 44.4269 49.8478 43.8756 49.1378 42.6796Z" fill="white"/>
<path fill-rule="evenodd" clip-rule="evenodd" d="M53.118 39.5674C51.0997 38.633 50.9877 37.4745 51.0997 35.587C50.6513 29.1772 59.7334 15.4793 64.7228 15.5168C68.7905 15.7985 65.8201 26.2168 60.1257 34.2415L61.5272 36.54C61.9571 37.0913 62.1065 38.0069 61.4712 38.7825L59.8454 40.2962C60.7517 41.679 63.0876 42.0527 63.8257 41.9219C65.6478 41.5295 65.928 40.1 65.844 39.3992C65.788 38.3434 65.4796 37.3715 65.0031 36.2877L66.685 34.3536L66.741 38.7825C67.5259 42.5761 70.3291 40.1747 72.2912 37.6893C74.3842 42.0622 76.6454 36.9886 77.9814 36.5401C80.719 41.2679 81.9431 36.1288 83.8399 35.4748L83.3634 37.5771L85.69 37.3249C86.6337 36.9979 86.6804 36.2784 86.7551 35.7552L87.2036 33.7369C87.3158 33.1669 87.7641 33.0455 88.2127 33.793C89.2779 35.7366 91.1841 38.6891 92.4174 38.6143C93.8003 38.3714 94.4543 34.5966 95.4727 33.1764C97.9487 37.4745 99.2757 32.4102 101.135 31.971C103.349 36.8672 105.171 30.4947 107.442 30.1491C109.114 34.1575 110.394 32.027 111.03 31.8308L111.234 31.8987C99.4503 44.13 89.1709 39.6349 84.8212 40.5361C83.4944 40.4239 82.6161 41.3209 82.3545 42.0497L81.4575 43.9558L60.7706 44.6846C49.5022 45.32 47.3718 51.3372 47.484 55C50.3431 48.665 69.7965 49.562 77.7574 49.6181C79.6635 49.7489 79.8878 48.1418 80.4484 47.3196C80.8967 46.2171 81.6818 44.666 82.2985 44.5165C102.864 45.5431 108.849 36.3814 112.522 30.8597L113.691 29.1553C113.805 28.9996 113.917 28.8498 114.029 28.707C113.964 28.7883 113.9 28.8656 113.835 28.9458L114.394 28.1309L114.562 27.7945L112.263 29.1961C111.777 29.327 111.236 28.9251 111.142 27.9066C110.877 25.5105 114.844 22.0257 116.853 19.2561C119.216 15.9982 117.931 12.6965 116.58 13.0223C111.217 14.7333 109.09 21.8459 107.61 28.9158C107.199 29.3082 106.395 30.6818 105.031 30.2613C105.33 27.6451 106.078 24.7485 107.106 22.0762C105.984 21.9452 104.947 22.179 103.91 22.6928L103.125 24.2345C102.564 22.3844 98.416 21.7958 96.0053 28.5233L94.0993 33.625C93.959 34.1576 93.3424 34.8303 92.4174 34.8023C91.2588 34.6527 90.0442 33.8585 89.4462 32.3356C93.6134 31.9432 96.8556 26.1967 95.3326 24.2625C93.7909 22.4406 91.6325 25.8043 89.7824 25.9444L91.3942 18.8946C90.2916 18.9788 88.9509 19.0207 88.3809 19.8897L84.5686 33.5689C84.1575 34.1575 81.3077 37.0727 82.3262 33.5689L84.1762 26.505L81.4292 27.0096C80.7004 27.2712 80.5322 27.7571 80.42 28.299L78.7943 34.7461C78.2057 35.4843 77.3367 36.0543 76.2714 36.0356L78.2897 27.8506C77.2619 27.8226 76.1781 28.0468 75.1223 28.5233L74.4215 30.1212C73.7674 29.5232 72.5807 27.972 70.5531 29.5325L64.4424 35.5311C63.5548 35.3067 62.8073 34.8023 62.4523 33.8492C75.1316 21.3566 69.5908 13.7137 66.3485 14.0594C55.4847 15.5763 47.2489 28.4164 47.0071 34.634C46.8016 39.4741 51.109 40.0254 53.118 39.5675L53.118 39.5674ZM70.8619 37.3963C69.3483 35.8452 71.5347 31.3229 73.0483 31.2295C74.9545 31.323 71.9831 38.3119 70.8619 37.3963ZM61.1632 40.3119L62.3404 39.1066C62.4619 39.6392 62.4993 40.0597 62.2564 40.5361C61.6677 40.6015 61.3874 40.5549 61.1632 40.3119ZM88.5773 31.2857C88.2505 29.3329 89.3249 27.4362 91.0441 27.2493C92.997 28.0341 89.764 31.7062 88.5773 31.2857ZM101.948 25.0629C101.468 25.0629 99.958 26.0393 99.4534 28.2584C98.9489 30.4775 99.0015 31.4539 99.4814 31.4539C99.9613 31.4539 100.967 31.2064 101.864 28.819C102.761 26.4316 102.428 25.0629 101.948 25.0629V25.0629ZM112.908 22.7082C113.623 19.9986 115.197 17.233 117.225 14.7475C118.645 15.551 115.188 20.6713 112.908 22.7082Z" fill="white"/>
<path fill-rule="evenodd" clip-rule="evenodd" d="M83.7985 19.8906C84.7042 19.8906 85.4383 20.7629 85.4383 21.8389C85.4383 22.9148 84.7042 23.787 83.7985 23.787C82.8928 23.787 82.1587 22.9148 82.1587 21.8389C82.1587 20.7629 82.8928 19.8906 83.7985 19.8906Z" fill="white"/>
</svg>
