<svg width="165" height="67" viewBox="0 0 165 67" fill="none" xmlns="http://www.w3.org/2000/svg">
<path fill-rule="evenodd" clip-rule="evenodd" d="M63.2325 37.4381C63.1691 38.4665 62.8695 38.9891 61.844 38.9891L61.6866 39.4799H66.4664L66.6079 38.9891C65.6297 38.9891 65.6771 38.2367 65.7245 37.531L66.5131 27.2777C65.8666 27.5387 64.8251 27.9685 64.0051 28.0458L57.68 37.2849C57.1749 38.0218 56.4971 38.8359 55.535 38.9891L55.3775 39.4799H59.0211L59.1632 38.9891C57.68 38.9891 58.3112 37.9452 58.7689 37.2395L59.5735 36.0416H63.3279L63.2325 37.4381ZM63.7529 30.3622L63.3746 35.1665H60.204L63.4693 30.4232L63.7529 30.3622ZM77.1757 37.5303C76.8448 38.6807 76.4031 39.0339 75.1407 39.0339L74.9833 39.4793H80.7092L80.8667 39.0339C79.589 39.0644 79.4155 38.6197 79.7151 37.5303L82.0963 29.4565C82.4279 28.3054 82.8536 27.9529 84.1153 27.9529L84.21 27.5231H74.8558L74.6984 27.9529C76.2129 27.9529 75.834 29.0267 75.471 29.9636L72.3478 37.8218C72.111 38.4048 71.3223 38.9119 70.8646 38.8651C70.3916 38.8346 69.9499 38.4503 69.9339 37.99C69.9025 37.3453 70.6438 37.0843 70.9434 37.0843C70.9434 36.5311 70.3128 36.0247 69.6503 36.0708C68.9878 36.1163 68.2619 36.746 68.2619 37.6212C68.2619 38.7112 69.1139 39.7085 70.3442 39.7085C71.5585 39.7085 72.7888 39.2332 73.2465 38.0666L76.4018 30.085C76.9535 28.6891 77.7422 28.0594 78.6255 28.0899C79.4148 28.1048 79.7144 28.8878 79.5249 29.5636L77.1757 37.5303ZM95.7106 30.8998H96.0576L97.0037 27.5231H86.6413L85.5364 30.8998H85.9468C86.6567 29.4565 88.7864 28.0905 90.427 28.0451L87.5394 37.5303C87.1771 38.7729 86.6086 38.9885 85.2849 38.9885L85.1902 39.4793H91.4205L91.5159 38.9885C90.2376 38.9885 89.7492 38.7885 90.1281 37.5303L92.9664 28.0451C94.6057 28.0451 95.7106 29.3643 95.7106 30.8998ZM103.502 29.4572C103.802 28.4288 104.228 27.9536 105.411 27.9536L105.553 27.5238H99.9367L99.7632 27.9536C101.026 27.9536 101.246 28.3366 100.931 29.4572L98.5803 37.531C98.1713 38.9891 96.4993 39.0346 96.4993 39.0346L96.4038 39.4799H102.019L102.161 39.0346C101.136 39.0346 100.711 38.6509 101.073 37.6225L107.398 30.7004L105.41 37.531C105.111 38.5593 104.638 39.0346 103.454 39.0346L103.359 39.4799H108.989L109.1 39.0346C107.886 39.0346 107.617 38.6665 107.932 37.531L110.33 29.4572C110.646 28.3671 111.103 27.9536 112.366 27.9536L112.523 27.5238H106.893L106.751 27.9536C107.633 27.9536 107.965 28.1061 107.886 28.9196V29.1657L101.576 35.9345L103.502 29.4572ZM118.566 29.4572C118.866 28.4593 119.071 27.999 120.254 27.9536L120.349 27.5238H114.985L114.828 27.9536C116.09 27.9536 116.311 28.2756 115.964 29.4572L113.582 37.531C113.283 38.6048 112.746 39.0346 111.547 39.0346L111.437 39.4799H117.084L117.226 39.0346C115.996 39.0346 115.885 38.5282 116.169 37.531L117.115 34.3997L118.125 33.5557L120.334 37.6231C120.65 38.2062 120.239 38.9891 119.498 38.9891L119.34 39.4183H124.529L124.671 38.9891C123.725 38.8963 123.457 38.2678 123.079 37.531L120.16 31.8976L123.299 29.2579C124.04 28.6443 124.703 27.9996 125.743 27.9536L125.886 27.5238H121.864L121.722 27.9536C123.252 27.9536 122.291 29.1507 121.754 29.5805L117.526 32.926L118.566 29.4572ZM133.678 37.4381C133.614 38.4516 133.299 38.9891 132.29 38.9891L132.148 39.4799H136.926L137.069 38.9891C136.044 38.9891 136.138 38.2522 136.187 37.531L136.975 27.2777C136.265 27.5848 135.288 27.9685 134.482 28.0458L128.126 37.2849C127.622 38.0218 126.958 38.8359 125.997 38.9891L125.855 39.4799H129.467L129.625 38.9891C128.095 38.9891 128.773 37.9452 129.23 37.2395L130.035 36.0416H133.789L133.678 37.4381ZM134.23 30.3622L133.835 35.1665H130.68L133.93 30.4232L134.23 30.3622ZM49.336 33.1253C50.5816 33.1253 51.7172 33.7544 51.7172 35.0288C51.7172 37.0544 49.9818 38.8041 47.9789 38.8041C47.6473 38.8041 47.4111 38.4821 47.5058 38.1594L48.941 33.1253H49.336ZM46.4964 27.5231L46.4016 27.7835C45.2974 28.1821 44.1298 28.5048 42.9789 28.4437C40.4868 28.3515 38.1203 26.97 35.6123 27.0005C33.3251 27.0466 30.6596 28.5515 29.8863 30.8686C31.1794 29.9168 33.167 29.0423 34.887 28.9806C37.395 28.904 39.7449 30.27 42.2536 30.3317C43.8622 30.3622 45.9919 29.3955 46.8753 27.9984C47.8534 28.1211 47.7427 28.7196 47.5379 29.4565L45.1559 37.5303C44.825 38.6807 44.352 39.0339 43.0583 39.0339L42.9475 39.4793H49.0357C51.3703 39.4793 54.32 38.0672 54.32 35.5657C54.32 33.2792 51.7806 32.4495 49.8404 32.4495H49.1939L50.4242 28.1827H51.0707C53.4206 28.1827 54.6196 28.6125 55.2981 30.8387H55.645L55.2667 27.5238H46.4964V27.5231ZM34.1611 31.6671C36.6691 31.6366 39.035 33.0175 41.543 33.1097C42.9468 33.1714 44.3506 32.6955 45.6757 32.1742C45.0292 33.8317 42.5999 35.0593 40.8171 35.0133C38.3091 34.9516 35.9432 33.5862 33.4505 33.6473C31.7151 33.6934 29.8383 34.553 28.4505 35.5508C29.1771 33.2785 31.8112 31.7126 34.1611 31.6671ZM32.7259 36.3487C35.2179 36.3175 37.5838 37.6991 40.0919 37.7913C41.4957 37.853 42.8995 37.3771 44.2405 36.8551C43.578 38.5132 41.1647 39.7409 39.3666 39.6948C36.8746 39.6331 34.4927 38.2522 32 38.3288C30.2493 38.3912 28.3878 39.2352 27 40.2324C27.7413 37.9594 30.36 36.3942 32.7259 36.3487Z" fill="white"/>
<path fill-rule="evenodd" clip-rule="evenodd" d="M56.4023 40.2778L55.992 39.8792H59.6356L60.0453 40.2778H56.4023ZM137.59 27.6919L138 28.0756L137.29 37.5764C137.275 37.9445 137.259 38.436 137.495 38.758C136.944 38.2055 136.769 38.1139 136.833 37.3771L137.59 27.6919ZM133.173 40.2778L132.763 39.8792H137.542L137.952 40.2778H133.173ZM132.494 34.7983L131.958 34.6445L133.393 32.5118L133.282 33.6622L132.494 34.7983ZM129.75 38.6963C129.055 38.1743 130.381 36.8544 130.649 36.4558H133.094V36.8395H131.06C130.76 37.2849 129.561 38.4976 130.176 39.1111L129.75 38.6963ZM126.879 40.2778L126.469 39.8792H130.097L130.507 40.2778H126.879ZM120.364 40.2311L119.954 39.8324H125.143L125.553 40.2311H120.364ZM121.122 28.7819C120.316 28.8586 120.017 29.104 119.701 29.872L119.402 30.8692L118.724 31.4061L119.182 29.8408C119.182 29.8558 119.481 28.4749 120.869 28.3671L121.122 28.6125L121.295 28.7657C121.231 28.7657 121.169 28.7819 121.122 28.7819ZM121.122 32.465C121.058 32.3579 121.011 32.2508 120.948 32.1436L121.122 31.9898L123.897 29.5649C124.544 28.9975 125.459 28.4294 126.358 28.3677L126.768 28.7664C125.9 28.8281 125.034 29.365 124.402 29.8876L121.563 32.3897L124.67 38.56C124.308 38.56 124.055 38.2068 123.929 37.9302C122.984 36.1128 122.048 34.2911 121.122 32.465ZM118.267 34.9976L118.093 35.1509L117.225 38.1743C117.179 38.3438 117.179 38.4509 117.179 38.6502C116.768 38.6197 116.626 38.3275 116.689 38.0516L117.699 34.7516L117.983 34.5218L118.267 34.9976ZM112.461 40.2778L112.052 39.8792H117.699L118.094 40.2778H112.461ZM109.402 38.6048L108.897 38.5593C108.393 38.5593 108.771 37.4232 108.882 37.07L111.105 29.6876C111.405 28.6281 112.004 28.3677 113.093 28.3677L113.502 28.7664C112.525 28.7664 111.878 28.8891 111.562 29.8876L109.339 37.2699C109.275 37.5303 108.913 38.4204 109.402 38.6048ZM104.528 30.2706L103.676 32.926L102.918 33.7089L104.181 29.6876C104.259 29.3805 104.386 29.1195 104.528 28.9358C104.875 28.4898 105.396 28.3677 106.169 28.3677L106.578 28.7664C105.617 28.7664 104.97 28.8891 104.654 29.8876L104.528 30.2706ZM104.528 35.7956L102.098 38.4353C101.91 38.4353 101.499 38.3431 101.688 38.036L104.528 34.8899L106.137 33.0935L105.711 34.5211L104.528 35.7956ZM104.528 40.2778H104.402L103.975 39.8792H109.607L110.016 40.2778H104.528ZM97.4293 40.2778L97.019 39.8792H102.634L103.045 40.2778H97.4293ZM96.8769 31.6976H96.7348L96.3258 31.3139H96.6727L96.8776 30.5771L97.6188 27.9373L98.0292 28.321L97.0831 31.6976H96.8769ZM93.5802 28.4437L93.9906 28.843L91.3885 37.714C91.3091 37.9906 91.2464 38.1438 91.3418 38.4353C91.0095 38.3736 90.6319 38.297 90.7099 38.0055L93.5802 28.4437ZM86.215 40.2778L85.8047 39.8792H92.035L92.4453 40.2778H86.215ZM86.9562 31.6976L86.5613 31.3139C87.1297 30.3005 88.4221 29.2423 89.5897 28.7352L89.2901 29.4565C88.292 29.9498 87.4763 30.733 86.9562 31.6976ZM81.0722 38.6048L80.5671 38.5593C80.0467 38.5593 80.441 37.4082 80.5511 37.07L82.7595 29.6876C83.0751 28.5976 83.6269 28.3677 84.7311 28.3677L85.1415 28.7664C84.1954 28.7664 83.5168 28.8891 83.2172 29.8876L81.0088 37.2699C80.8987 37.6686 80.7092 38.2522 81.0722 38.6048ZM77.145 40.2778H76.0094L75.5991 39.8792H81.3251L81.7354 40.2778H77.145ZM71.4191 37.9594C71.2456 38.0055 71.1035 38.0977 71.1195 38.2672C70.962 38.2977 70.6932 38.2211 70.6618 38.0367C70.6144 37.6692 70.9614 37.5614 71.4191 37.4998C71.4665 37.4998 71.5138 37.4848 71.5612 37.4848L71.9709 37.8997C71.8761 37.899 71.6239 37.899 71.4191 37.9594ZM71.4191 40.3388C71.1195 40.3083 70.914 40.2622 70.8826 40.246C71.0401 40.2311 71.2296 40.2006 71.4191 40.185C72.3025 40.0467 73.3593 39.7091 73.7536 38.6956L77.145 30.1466L77.3185 29.7175C77.4446 29.3637 78.1545 28.4125 78.7063 28.4885C78.2966 29.2104 78.0124 29.3637 77.5233 30.6381L77.145 31.6048L74.4162 38.6035C73.769 40.2622 72.2551 40.4005 71.4191 40.3388ZM67.1283 27.6919L67.5386 28.0756L66.9395 37.4693C66.9395 37.7763 66.8921 38.4665 67.0502 38.758C66.4511 38.4665 66.4037 38.1139 66.4511 37.3771C66.6239 34.1381 66.8761 30.9153 67.1283 27.6919ZM62.7114 40.2778L62.3011 39.8792H67.0809L67.4913 40.2778H62.7114ZM62.0495 34.7983L61.4971 34.6445L62.9483 32.5118L62.8222 33.6622L62.0495 34.7983ZM59.3047 38.6963C58.7055 38.3126 59.9512 36.7778 60.1567 36.4558H62.6327V36.8395H60.5977C60.3468 37.2213 59.2046 38.5918 59.7077 39.0735L59.3047 38.6963ZM56.6705 31.6366L56.2602 31.2523L55.8659 27.9373L56.2762 28.321L56.6705 31.6366ZM53.4366 29.4104C53.105 29.2267 52.7421 29.0118 52.3484 28.9962H51.433L50.5977 31.9735L50.0612 31.943L51.0394 28.6119C52.3324 28.6125 52.5853 28.582 53.4366 29.4104ZM49.6195 35.1359L48.7048 38.3593C48.4366 38.3593 48.2157 38.2827 48.2625 37.9912L49.5562 33.5557H49.6189C50.1239 33.5557 50.7551 33.8011 50.9753 34.2764C50.8339 34.1842 50.1393 33.9388 49.9658 33.9388L49.6195 35.1359ZM49.6195 40.2778C49.4147 40.2927 49.1939 40.2927 48.973 40.2927L44.0044 40.2778L43.5627 39.8941H44.0044L48.8943 39.8792C49.1311 39.8792 49.3834 39.8636 49.6195 39.848C52.3804 39.6643 54.9825 38.3743 54.9825 35.2281C55.0933 35.5047 55.2507 35.9806 55.3455 36.3792C55.0773 37.9757 53.863 40.0778 49.6195 40.2778ZM32.1108 39.1423C34.2245 39.1423 36.8586 40.431 38.9883 40.4466C40.1713 40.4622 41.8273 39.9097 43.0109 39.5877C42.3484 40.2473 40.4081 41.0147 38.8936 40.9997C36.7805 40.9997 33.6567 39.5877 31.559 39.6033C30.0765 39.6033 29.5561 39.9103 28.4038 40.4167C29.3346 39.4643 30.7857 39.1423 32.1108 39.1423ZM44.0044 31.2224C43.2945 31.4678 42.4898 31.6373 41.7806 31.6373C39.6515 31.6373 36.5597 30.2096 34.43 30.2245C32.9628 30.2245 32.4424 30.5466 31.2748 31.0536C32.2369 30.0707 33.6887 29.7792 34.9978 29.7792C37.1275 29.7792 39.7456 31.0685 41.8753 31.0841C42.5065 31.0841 43.2638 30.9309 44.005 30.7309C44.6836 30.5621 45.3301 30.3628 45.8979 30.194C45.5343 30.5465 44.8244 30.9302 44.0044 31.2224ZM44.0044 35.2431C43.137 35.7962 41.5911 36.3338 40.3447 36.3175C38.215 36.3175 35.0919 34.9055 32.9942 34.921C31.5116 34.921 30.9912 35.2281 29.8396 35.7345C30.7704 34.7828 32.2369 34.4607 33.5466 34.4607C35.6757 34.4607 38.2944 35.7495 40.4402 35.7657C41.465 35.7806 42.8848 35.3508 44.005 35.0288C44.1625 34.9827 44.3206 34.936 44.4627 34.9061C44.3353 35.0126 44.1932 35.1359 44.0044 35.2431Z" fill="white"/>
</svg>
