<svg width="165" height="67" viewBox="0 0 165 67" fill="none" xmlns="http://www.w3.org/2000/svg">
<path d="M56.5447 31.8171C56.4869 31.7943 56.4176 31.7714 56.4176 31.7029C56.4176 31.6571 56.4407 31.6229 56.4869 31.6C56.5678 31.5657 58.5668 30.8571 58.5668 28.5257C58.5668 25.9314 56.7989 24.3886 53.8178 24.3886H46.5961V39.6343H54.4764C56.7758 39.6343 59.2485 38.0229 59.2485 35.4286C59.2485 32.9486 57.3535 32.08 56.5447 31.8171ZM50.2358 27.5086C50.2358 27.4514 50.282 27.4057 50.3398 27.4057H53.2054C54.1529 27.4057 54.7999 28.0343 54.7999 28.9714C54.7999 29.7029 54.2222 30.4914 53.1361 30.4914H50.3398C50.282 30.4914 50.2358 30.4457 50.2358 30.3886V27.5086ZM53.2054 36.6286H50.3398C50.282 36.6286 50.2358 36.5829 50.2358 36.5257V33.4857C50.2358 33.4286 50.282 33.3829 50.3398 33.3829H53.1361C54.5111 33.3829 55.2968 33.9657 55.2968 34.9943C55.2968 36.0571 54.5688 36.6286 53.2054 36.6286ZM83.6406 30.4571L83.0859 30.3429C81.838 30.08 80.6248 29.7486 80.6248 28.6857C80.6248 27.6229 81.63 27.1429 82.6238 27.1429C83.7908 27.1429 84.9463 27.6571 85.8244 28.5486L88.1123 26.3086C87.1301 25.2343 85.3853 24 82.566 24C79.1689 24 76.8811 25.9086 76.8811 28.7543C76.8811 31.76 79.2729 32.8914 81.2834 33.3143L81.8265 33.4286C83.7792 33.84 84.7036 34.1486 84.7036 35.2457C84.7036 36.2286 83.8139 36.88 82.4967 36.88C80.9483 36.88 79.5733 36.2057 78.5334 34.9371L76.1878 37.2114C77.4357 38.6743 79.088 40 82.5429 40C85.4893 40 88.482 38.3086 88.482 35.0629C88.4705 31.7371 86.1826 30.9829 83.6406 30.4571ZM114.087 24.3886V29.9657C114.087 30.0229 114.041 30.0686 113.983 30.0686H109.246C109.188 30.0686 109.142 30.0229 109.142 29.9657V24.3886H105.259V39.6343H109.142V33.6457C109.142 33.5886 109.188 33.5429 109.246 33.5429H113.983C114.041 33.5429 114.087 33.5886 114.087 33.6457V39.6343H117.993V24.3886H114.087ZM97.4485 36.5143C95.7037 36.5143 93.8203 35.0743 93.8203 31.9086C93.8203 29.0171 95.5882 27.5086 97.3329 27.5086C98.604 27.5086 99.4937 28.0343 100.199 29.2L103.18 27.2457C101.654 25.0286 99.8403 24.0229 97.3098 24.0229C92.3529 24.0229 90.1343 27.9886 90.1343 31.9086C90.1343 36.6743 93.0692 40 97.2636 40C100.383 40 101.805 38.8686 103.295 36.7771L100.291 34.7771C99.6208 35.8514 98.8928 36.5143 97.4485 36.5143ZM67.9723 24C63.7318 24 60.8893 27.2114 60.8893 32C60.8893 36.7886 63.7318 40 67.9723 40C72.2129 40 75.0554 36.7886 75.0554 32C75.0554 27.2114 72.2129 24 67.9723 24ZM67.9723 36.5143C65.8925 36.5143 64.5521 34.7429 64.5521 32C64.5521 29.2686 65.8925 27.5086 67.9723 27.5086C70.0638 27.5086 71.4157 29.2686 71.4157 32C71.4157 34.7429 70.0638 36.5143 67.9723 36.5143Z" fill="white"/>
</svg>
