<svg width="48" height="48" viewBox="0 0 48 48" fill="none" xmlns="http://www.w3.org/2000/svg">
<rect width="48" height="48" rx="24" fill="#FF3E41"/>
<path d="M28.1667 16.9165H19.8334C17.3334 16.9165 15.6667 18.1665 15.6667 21.0832V26.9165C15.6667 29.8332 17.3334 31.0832 19.8334 31.0832H28.1667C30.6667 31.0832 32.3334 29.8332 32.3334 26.9165V21.0832C32.3334 18.1665 30.6667 16.9165 28.1667 16.9165ZM28.5584 21.9915L25.95 24.0748C25.4 24.5165 24.7 24.7332 24 24.7332C23.3 24.7332 22.5917 24.5165 22.05 24.0748L19.4417 21.9915C19.175 21.7748 19.1334 21.3748 19.3417 21.1082C19.5584 20.8415 19.95 20.7915 20.2167 21.0082L22.825 23.0915C23.4584 23.5998 24.5334 23.5998 25.1667 23.0915L27.775 21.0082C28.0417 20.7915 28.4417 20.8332 28.65 21.1082C28.8667 21.3748 28.825 21.7748 28.5584 21.9915Z" fill="white"/>
</svg>
