<svg width="165" height="67" viewBox="0 0 165 67" fill="none" xmlns="http://www.w3.org/2000/svg">
<path d="M50.0005 26.0026C51.606 26.0083 53.2119 26.0036 54.8179 26.0053C54.8152 27.3662 54.8175 28.7272 54.8166 30.0882C54.8227 30.5459 54.8047 31.0042 54.8267 31.4619L54.8274 31.4725C54.8305 31.4702 54.8362 31.4654 54.8393 31.4628C55.1243 31.2147 55.379 30.9329 55.6398 30.6594C56.9385 29.3547 58.2109 28.0249 59.5065 26.7172C59.7438 26.4858 59.9626 26.2375 60.199 26.0057C61.706 26.0009 63.2135 26.0123 64.7206 26C63.1657 27.5549 61.6076 29.1062 60.0489 30.6572C61.0718 33.1993 62.0738 35.7506 63.0892 38.2961C63.1513 38.4192 63.1657 38.5728 63.2665 38.673C64.6623 34.4521 66.0464 30.2267 67.433 26.0031C68.6323 26.0074 69.832 26.0053 71.0315 26.0039C72.3616 30.0301 73.7001 34.0536 75.0308 38.0794C75.058 38.1445 75.058 38.2285 75.1236 38.2733C75.1304 34.1834 75.1271 30.093 75.1248 26.0026C77.0695 26.0088 79.0139 26.0026 80.9586 26.0057C81.6485 28.3327 82.3531 30.6559 83.0482 32.9811C83.236 33.6294 83.4505 34.2704 83.6189 34.9243C83.6802 34.8553 83.7026 34.766 83.7302 34.6816C84.6861 31.7881 85.653 28.8983 86.6059 26.0039C88.463 26.0061 90.3202 26.0061 92.1774 26.0039C92.1691 30.0728 92.1806 34.1421 92.1717 38.2109C92.1871 38.2118 92.2174 38.2131 92.2326 38.2134C92.5608 37.1485 92.9303 36.0958 93.2713 35.0346C94.0544 32.6725 94.827 30.3067 95.6118 27.945C95.8157 27.2972 96.0463 26.6579 96.2443 26.0083C97.4478 26.0004 98.6516 26.0074 99.8554 26.0053C101.179 30.0869 102.519 34.1632 103.847 38.2434C103.957 38.5644 104.049 38.8916 104.171 39.2086C105.637 35.726 107.091 32.2389 108.548 28.7523C107.069 28.754 105.59 28.7505 104.111 28.754C104.112 27.8372 104.115 26.9208 104.109 26.0039C107.739 26.0061 111.37 26.0053 115 26.0044C113.201 30.4167 111.419 34.8359 109.626 39.2508C111.414 39.2473 113.202 39.253 114.99 39.2482C114.982 39.9622 114.948 40.676 114.933 41.3906C114.914 41.5832 114.954 41.7846 114.89 41.9719C113.712 41.9508 112.536 41.9872 111.36 41.9789C110.15 41.9754 108.939 41.9811 107.73 41.9886C105.237 41.9842 102.745 42.0044 100.254 41.9974C100.064 41.4046 99.8658 40.8141 99.6781 40.2205C98.0895 40.2196 96.5012 40.2187 94.9131 40.2209C94.7207 40.8136 94.5232 41.4046 94.3332 41.9982C92.0155 41.9982 89.6978 41.9948 87.3802 42C87.3833 39.1386 87.3863 36.2769 87.3789 33.4156C87.3671 33.4284 87.3439 33.4539 87.332 33.4666C86.4676 36.3117 85.5939 39.1541 84.7312 41.9991C83.4396 41.9952 82.1478 41.9978 80.8562 41.9982C80.092 39.6009 79.3321 37.2021 78.5692 34.8047C78.4322 34.3347 78.2514 33.8769 78.1393 33.4011L78.0882 33.4007C78.093 36.2669 78.0856 39.1334 78.0921 42C75.8637 41.9938 73.6353 41.9991 71.4071 41.9974C71.2302 41.4011 71.0213 40.8145 70.8388 40.22C69.2491 40.22 67.6593 40.2191 66.0696 40.2205C65.8709 40.8118 65.6826 41.4068 65.4843 41.9987C63.3589 41.9965 61.2334 41.9969 59.1082 41.9987C58.1252 39.461 57.1399 36.9246 56.1585 34.387C55.7463 34.7633 55.3685 35.1772 54.9553 35.5541C54.904 35.6146 54.8121 35.6631 54.8179 35.755C54.8156 37.8358 54.817 39.9165 54.8175 41.9974C53.2115 41.9991 51.606 41.9938 50 42C50.0044 36.6674 50.0039 31.3353 50.0005 26.0026ZM68.4323 32.9504C67.9618 34.4617 67.4435 35.9581 66.9707 37.4686C67.9596 37.4668 68.9483 37.4717 69.9372 37.466C69.5016 36.1389 69.0683 34.8113 68.631 33.4851C68.5636 33.3074 68.5388 33.1087 68.4323 32.9504ZM97.2689 32.968C97.1604 33.3743 97.0128 33.7687 96.8898 34.1711C96.5331 35.269 96.1759 36.3671 95.8224 37.4663C96.8076 37.4686 97.7933 37.4731 98.7785 37.4642C98.2857 35.9665 97.7937 34.4683 97.3123 32.9671L97.2689 32.968Z" fill="white"/>
</svg>
