<svg width="165" height="67" viewBox="0 0 165 67" fill="none" xmlns="http://www.w3.org/2000/svg">
<path fill-rule="evenodd" clip-rule="evenodd" d="M48 33.5C48 26.0441 63.4457 20 82.5 20C101.554 20 117 26.0441 117 33.5C117 40.9559 101.554 47 82.5 47C63.4461 47 48 40.9563 48 33.5ZM90.1948 34.6821C90.1901 34.6599 90.1787 34.6396 90.162 34.6239C90.1453 34.6082 90.1241 34.5978 90.1013 34.5941C89.1084 34.4521 88.1111 34.3408 87.111 34.2601C87.0521 34.2501 87.0105 34.1967 87.0494 34.0703C90.238 30.7881 91.4491 26.6117 89.8369 23.3441C89.8387 23.3292 89.8435 23.3148 89.851 23.3017C89.8585 23.2886 89.8685 23.2771 89.8806 23.2678C89.8926 23.2586 89.9064 23.2517 89.9211 23.2476C89.9359 23.2436 89.9513 23.2424 89.9665 23.2442C100.939 24.5461 108.95 28.6453 108.95 33.5C108.95 39.4026 97.1086 44.1878 82.5004 44.1878C67.8922 44.1878 56.0499 39.403 56.0499 33.5C56.0499 28.3832 64.9503 24.1057 76.8373 23.0578C76.8951 23.0597 76.9438 23.1031 76.9469 23.1923L74.366 37.095C74.3178 37.3393 74.3254 37.591 74.3882 37.8321C74.451 38.0732 74.5676 38.2977 74.7295 38.4895C74.8914 38.6814 75.0946 38.8359 75.3247 38.9419C75.5548 39.048 75.806 39.1029 76.0603 39.1029L76.1526 39.1075C78.4546 38.9903 80.9283 38.2874 83.2648 36.9678C83.927 36.5939 84.5642 36.1793 85.1728 35.7266C85.1903 35.7125 85.2117 35.7039 85.2342 35.7017C85.2567 35.6996 85.2794 35.7041 85.2993 35.7146C86.0775 36.2215 86.5253 36.8149 86.5253 37.4497C86.5253 38.312 85.6988 39.0987 84.3392 39.6955C82.7597 40.3887 80.4604 40.8245 77.9003 40.8245C75.7307 40.8245 73.7485 40.5113 72.2106 39.9887C72.1957 39.9861 72.1804 39.9864 72.1657 39.9896C72.1509 39.9928 72.1369 39.9988 72.1245 40.0073C72.1122 40.0158 72.1016 40.0266 72.0935 40.0391C72.0854 40.0516 72.08 40.0656 72.0774 40.0801L71.8582 41.2588C71.8545 41.2868 71.8617 41.3152 71.8783 41.3383C71.895 41.3615 71.9199 41.3776 71.9482 41.3836C75.0763 42.0957 78.6738 42.5008 82.5028 42.5008C87.2658 42.5008 91.1281 40.9894 91.1281 39.126C91.1281 38.4008 90.5444 37.7295 89.5513 37.1799C88.6812 36.7626 88.1332 36.2215 88.2675 35.8588C88.407 35.4825 89.2394 35.4222 90.2282 35.6828C90.2843 35.6901 90.3385 35.657 90.3586 35.5586L90.1948 34.6821ZM82.5 26.1728C82.5 26.2458 82.4976 26.3184 82.4929 26.3895C82.6186 28.867 81.0528 32.1815 78.1918 34.9803C77.6239 35.5368 77.0191 36.0561 76.3813 36.5347C76.3561 36.5505 76.3256 36.5559 76.2964 36.5497C76.2367 36.5374 76.1978 36.4817 76.2084 36.4133L79.0124 21.3139C79.0109 21.286 78.9989 21.2596 78.9786 21.2399C78.9584 21.2201 78.9314 21.2084 78.9028 21.207C63.4489 21.918 51.4498 27.1504 51.4498 33.5C51.4498 40.3345 65.3513 45.8748 82.5 45.8748C99.649 45.8748 113.551 40.3345 113.551 33.5C113.551 26.6655 99.6494 21.1252 82.5 21.1252C81.9567 21.1252 81.4162 21.131 80.8741 21.1421C80.8484 21.1422 80.8235 21.1507 80.8033 21.1662C80.7831 21.1817 80.7687 21.2034 80.7625 21.2278L80.4345 22.9898C80.4266 23.037 80.4494 23.082 80.4895 23.1054C81.0896 23.3748 81.598 23.8071 81.9544 24.3508C82.3108 24.8945 82.5002 25.5269 82.5 26.1728Z" fill="white"/>
</svg>
