<svg width="165" height="67" viewBox="0 0 165 67" fill="none" xmlns="http://www.w3.org/2000/svg">
<path fill-rule="evenodd" clip-rule="evenodd" d="M52.276 27.2524H56.0143C56.8893 27.2524 57.6051 27.1993 58.427 27.1993C60.1768 27.1993 61.529 27.1463 63.1463 27.1463C65.5324 27.1463 66.8315 27.0136 68.2632 28.1279C69.4033 29.03 69.8805 31.0729 69.0851 32.3995C68.767 32.9301 68.3162 33.1689 68.0511 33.5934C68.3428 33.8852 68.7935 34.0709 69.1912 34.6811C70.0131 35.9016 69.907 37.6261 69.2177 38.6078C68.5549 39.5894 67.7595 39.9078 66.5399 40.12C65.5589 40.3058 64.8961 40.3058 63.8886 40.3058C63.4379 40.3058 63.0402 40.3588 62.51 40.3588C58.374 40.3588 56.0143 40.4119 51.8253 40.4119C51.8783 40.5711 52.1965 40.8894 52.3556 41.0752C52.7002 41.4466 53.0449 41.818 53.4426 42.1364L54.0789 42.6936C54.6887 43.2242 55.7227 43.7548 56.4385 44.1262C57.446 44.6303 59.3814 45.1344 60.495 45.1344C62.669 45.1344 63.9947 44.9752 65.7975 44.0732C66.858 43.5426 67.8125 42.9589 68.6609 42.1099C69.0321 41.7119 68.7935 42.0303 69.3502 41.4201C70.2252 40.4384 71.2592 38.7139 71.6303 37.4934C71.7894 36.9363 72.1341 35.7954 72.1606 35.2648C72.2136 34.0179 72.3197 32.7178 71.975 31.4709C71.9485 31.3382 71.8955 31.2321 71.8689 31.0729C71.6568 30.1443 71.5508 29.9055 71.1266 28.9769C71.0471 28.7912 71.0471 28.7647 70.941 28.6055L70.3047 27.5708C70.1986 27.4116 70.1721 27.3851 70.0661 27.2259C69.801 26.7748 68.6344 25.6075 68.1837 25.2095C67.2292 24.387 65.6915 23.6176 64.4984 23.2197C62.0327 22.3972 59.3814 22.5829 57.1014 23.4054C56.6506 23.5646 56.1999 23.8033 55.7492 24.0156C55.6697 24.0687 55.6697 24.0687 55.5636 24.1217C54.4501 24.7319 52.9123 25.8993 52.1965 26.9871C52.117 27.0932 52.0639 27.2524 52.276 27.2524ZM61.1313 32.3729L65.0287 32.3199C65.8771 32.3199 66.699 32.1607 66.699 31.0994C66.699 30.7545 66.5399 30.5157 66.3808 30.33C66.1687 30.1178 65.9036 30.0647 65.5059 30.0647H61.1313V32.3729ZM61.6615 35.2648H61.2108V37.4404L65.2143 37.3873C67.5209 37.3077 66.9641 35.6628 66.2748 35.3444C65.5854 35.0526 62.563 35.2648 61.6615 35.2648ZM59.8057 20.0624C56.9688 20.2482 54.5561 20.991 51.8518 23.2462C51.6928 23.3788 51.6397 23.4584 51.4541 23.5911C50.7648 24.1217 49.7308 25.5279 49.2536 26.2707C48.6968 27.0932 47.5833 29.3484 47.5833 30.2504C49.1475 30.4096 53.6017 30.2504 55.6166 30.1974C56.5181 30.1974 57.4195 30.1974 58.3209 30.1974V32.5056C55.9613 32.5056 53.6282 32.6382 51.3216 32.6117H47V35.5567C50.8178 35.5567 54.5296 35.4505 58.374 35.4505V37.52C56.4916 37.52 48.034 37.5465 47.6363 37.7588C47.5303 37.9975 47.7424 38.422 47.8484 38.7139C48.087 39.4302 48.4317 40.1996 48.8029 40.8629C49.0945 41.3935 49.6778 42.2425 50.0225 42.6936C50.7383 43.5956 51.5867 44.365 52.5146 45.1079C52.7533 45.2936 52.9654 45.4263 53.2305 45.612C54.238 46.2753 55.2985 46.859 56.4916 47.2304C56.7832 47.3365 57.0748 47.4161 57.4195 47.5222C60.0178 48.2916 63.3849 48.1059 65.9301 47.1508C67.4943 46.5671 68.5549 45.8773 69.801 44.8957C70.4903 44.3385 70.3842 44.3916 71.0471 43.7283C71.1531 43.6222 71.2592 43.516 71.3652 43.4099C71.4713 43.2772 71.4978 43.2242 71.6303 43.0915C71.9485 42.7732 72.4257 42.0568 72.6908 41.6854C73.6719 40.2262 74.4672 38.2098 74.7589 36.4587C74.918 35.5567 74.8915 35.4505 74.9445 34.7607C75.1831 32.6382 74.6263 29.9321 73.7779 28.1545C72.9029 26.2973 72.1341 25.1299 70.7554 23.7503C70.5433 23.538 70.3577 23.3788 70.1191 23.1666C69.9865 23.0605 69.907 22.9809 69.7744 22.8747C69.6684 22.7686 69.5623 22.7156 69.4563 22.6094C68.0776 21.4951 65.3468 20.5931 64.3128 20.3808C62.8546 20.0624 62.2448 19.9033 59.8057 20.0624Z" fill="white"/>
<path fill-rule="evenodd" clip-rule="evenodd" d="M111.299 35.1812H113.28C114.845 35.1812 115.523 35.635 115.523 37.0498C115.523 38.3845 114.845 38.865 112.498 38.865C111.56 38.865 110.021 38.7315 109.213 38.4912L108.77 40.5467C109.865 40.7869 111.664 41.0005 112.942 41.0005C116.409 41.0005 118 40.0929 118 37.3968C118 35.5282 117.452 34.2736 115.158 34.1668C117.322 33.98 117.739 32.8321 117.739 31.1771C117.739 28.9348 116.488 28.0005 112.942 28.0005C111.533 28.0005 109.891 28.2407 108.822 28.4543L109.265 30.483C110.021 30.2428 111.533 30.0826 112.472 30.0826C114.741 30.0826 115.262 30.483 115.262 31.6042C115.262 32.8321 114.741 33.2058 113.176 33.2058H111.299V35.1812ZM100.008 36.2223C98.9915 33.6329 97.74 30.6699 96.5927 28.2407H93.4376V40.7069H95.654V31.444C96.723 33.8465 97.9746 37.1299 98.9133 39.5857H100.712C101.703 37.1299 103.007 33.9266 104.102 31.444V40.7335H106.345V28.2407H103.346C102.251 30.6432 100.973 33.6329 100.008 36.2223ZM88.0141 34.1134C90.2044 33.9266 90.5433 32.8855 90.5433 31.2305C90.5433 29.4153 89.9958 28.2407 87.5447 28.2407H81V40.7069H87.649C89.6047 40.7069 90.8041 39.7459 90.8041 37.29C90.8041 35.4481 90.3347 34.2202 88.0141 34.1134ZM83.2946 30.2428H87.0493C87.8316 30.2428 88.0923 30.6966 88.0923 31.711C88.0923 32.6453 87.8055 33.2058 87.0493 33.2058H83.3206V30.2428H83.2946ZM83.2946 35.1545H87.0754C87.9098 35.1545 88.327 35.8218 88.327 36.9964C88.327 38.1175 87.988 38.7582 87.1536 38.7582H83.2946V35.1545Z" fill="white"/>
</svg>
