<svg width="165" height="67" viewBox="0 0 165 67" fill="none" xmlns="http://www.w3.org/2000/svg">
<path d="M84.778 31.4746C83.4642 32.8987 81.1902 33.0004 79.7752 31.6781C78.3603 30.3557 78.2592 28.067 79.5731 26.6429C80.887 25.2188 83.0599 25.1171 84.5254 26.3886C85.9908 27.711 86.1424 29.9488 84.8286 31.4238C84.8286 31.4746 84.778 31.4746 84.778 31.4746Z" fill="white"/>
<path d="M83.1105 16.8267C83.4137 17.1319 83.6663 17.3862 83.919 17.7422C84.7781 18.7594 85.4855 19.9292 85.9909 21.1498C86.8499 21.3024 87.709 21.3533 88.5681 21.3533H88.7197H88.8713C91.1958 21.1498 93.3688 20.0818 94.9858 18.4034L95.188 18.1999C94.8848 17.793 94.531 17.437 94.1773 17.081C88.2143 10.9777 78.7646 10.3166 71.9931 15.4026C77.198 12.8596 80.8365 14.5888 83.1105 16.8267Z" fill="white"/>
<path d="M71.033 34.2211C71.134 33.8142 71.2351 33.4073 71.3867 33.0513C71.8415 31.7798 72.4984 30.5592 73.2564 29.4911C72.9532 28.6773 72.5995 27.9144 72.1447 27.1515L72.0436 26.9989C72.0436 26.9481 71.9931 26.8972 71.9426 26.8972C70.5782 24.9645 68.6073 23.5913 66.3333 23.0318L66.0301 22.981C65.8785 23.4387 65.6764 23.9473 65.5753 24.4559C63.4024 32.6444 67.5461 41.2398 75.2778 44.5966C70.5782 41.3416 70.275 37.2727 71.033 34.2211Z" fill="white"/>
<path d="M92.0549 36.0514C91.6506 36.1532 91.2463 36.2549 90.8926 36.3057C89.5787 36.5092 88.2143 36.5601 86.9004 36.4075C86.3446 37.0687 85.8392 37.7807 85.4855 38.5436L85.435 38.6962L85.3844 38.8488C84.4243 40.9849 84.2222 43.4262 84.8791 45.6641C84.8791 45.7658 84.9296 45.8675 84.9802 45.9692C85.4855 45.8675 85.9908 45.7658 86.4456 45.6641C94.5815 43.4262 99.8875 35.5428 98.8769 27.1509C98.4221 32.8981 95.0869 35.1868 92.0549 36.0514Z" fill="white"/>
<path d="M71.9931 15.4026C69.517 17.1318 67.5461 19.5731 66.3839 22.4213C69.9718 23.1842 72.8522 25.8289 73.9639 29.3383C74.4187 29.0331 75.8842 27.9142 76.8443 24.7609C78.0066 20.9463 80.23 18.149 83.1105 16.9284C83.1105 16.8266 79.4215 11.588 71.9931 15.4026Z" fill="white"/>
<path d="M83.6663 42.867C83.6663 40.324 84.6265 37.8318 86.3446 35.95V35.8991C85.9909 35.5431 84.7781 34.6276 81.645 35.3396C77.8044 36.2551 73.5091 36.1025 71.033 34.2207C71.033 34.2207 68.3547 40.0188 75.3283 44.5962C78.0571 45.8677 81.1396 46.3763 84.1717 46.0203C83.8179 45.0031 83.6663 43.935 83.6663 42.867Z" fill="white"/>
<path d="M95.6427 18.7085C93.7225 20.8955 90.9937 22.1161 88.1133 22.1161C87.3553 22.1161 86.5973 22.0144 85.8898 21.8618H85.8392C85.6876 22.3704 85.5866 23.8963 87.709 26.185C90.3873 29.1349 92.4591 32.8985 92.0549 36.001C92.0549 36.001 98.3715 35.4416 98.8263 27.0496C98.5737 24.0488 97.4619 21.1498 95.6427 18.7085Z" fill="white"/>
<path d="M68.1526 55.5824H67.243V51.2593H68.7084C69.7696 51.2593 70.4771 51.717 70.4771 52.6834C70.4771 53.6497 69.7696 54.2092 68.6074 54.2092H68.1526V55.5824ZM68.1526 53.3954H68.6579C69.2138 53.3954 69.5675 53.192 69.5675 52.7342C69.5675 52.2765 69.2643 52.073 68.7084 52.073H68.2031L68.1526 53.3954Z" fill="white"/>
<path d="M71.134 53.3951C71.134 51.9201 72.0436 51.1572 73.2059 51.1572C74.5197 51.1572 75.2777 52.0219 75.2777 53.3951C75.2777 54.9209 74.3681 55.6329 73.2059 55.6329C72.0436 55.6329 71.134 54.87 71.134 53.3951ZM74.3176 53.3951C74.3176 52.4287 73.8628 51.971 73.2059 51.971C72.5489 51.971 72.1447 52.4287 72.1447 53.3951C72.1447 54.3614 72.65 54.8192 73.3069 54.8192C73.9639 54.8192 74.3176 54.4123 74.3176 53.3951Z" fill="white"/>
<path d="M79.4215 55.4294C79.0678 55.6329 78.6635 55.6837 78.2592 55.6837C77.1475 55.7854 76.1874 54.9208 76.0863 53.8019C76.0863 53.7002 76.0863 53.5984 76.0863 53.4967C76.0863 52.0218 76.9454 51.208 78.3603 51.208C78.714 51.208 79.1183 51.2589 79.4215 51.4115L79.2194 52.1744C78.9667 52.0726 78.714 52.0726 78.4614 52.0218C77.7034 52.0218 77.097 52.6321 77.097 53.395C77.097 54.1579 77.7034 54.7682 78.4614 54.7682C78.714 54.7682 78.9667 54.6665 79.2194 54.5648L79.4215 55.4294Z" fill="white"/>
<path d="M82.8072 54.4126H80.988L80.5838 55.5824H80.0279L81.645 51.2593H82.2008L83.8179 55.5824H83.262L82.8072 54.4126ZM81.1396 53.904H82.6051L81.8976 51.8696L81.1396 53.904Z" fill="white"/>
<path d="M85.6876 55.5824H85.1318V51.7679H83.8684V51.2593H86.951V51.7679H85.6876V55.5824Z" fill="white"/>
<path d="M87.5574 53.3951C87.5574 52.0219 88.3659 51.1572 89.4777 51.1572C90.741 51.1572 91.4485 52.0727 91.4485 53.3951C91.4485 54.87 90.6399 55.6329 89.5282 55.6329C88.4165 55.6329 87.5574 54.7683 87.5574 53.3951ZM90.8421 53.3951C90.8421 52.2253 90.3367 51.6658 89.4777 51.6658C88.7197 51.6658 88.1133 52.2253 88.1133 53.3951C88.1133 54.5649 88.6691 55.1243 89.5282 55.1243C90.3873 55.1243 90.8421 54.514 90.8421 53.3951Z" fill="white"/>
<path d="M96.805 55.5824H96.2491L95.9965 52.1748L94.8847 55.5824H94.3289L93.2677 52.2256L93.015 55.5824H92.4591L92.8129 51.2593H93.4698L94.6321 54.9721L95.7943 51.2593H96.4513L96.805 55.5824Z" fill="white"/>
</svg>
