<svg width="165" height="67" viewBox="0 0 165 67" fill="none" xmlns="http://www.w3.org/2000/svg">
<path fill-rule="evenodd" clip-rule="evenodd" d="M71.966 29.7142C72.326 29.802 72.7163 29.8605 73.138 29.9093C73.4465 29.1683 73.755 28.4367 74.0529 27.6957C75.0911 25.131 76.0986 22.5858 77.1677 20.002C75.934 20.002 74.906 20.08 74.0529 20.2166C73.21 20.3531 72.5312 20.5482 71.966 20.8112C70.3004 21.5912 69.6221 22.9175 68.8203 24.7997C68.4398 27.5006 69.3551 29.0899 71.966 29.7142ZM69.3242 37.2616C69.982 35.4671 70.5271 33.9169 71.1746 32.1224C71.4316 32.1029 71.699 32.1127 71.966 32.1029C72.0483 32.1029 72.1408 32.0932 72.2334 32.0834C72.3979 31.6643 72.8192 30.7572 72.994 30.3381H66.9079C66.6714 30.7575 66.4867 31.5083 66.2501 31.9273C66.6306 31.9273 67.237 31.9472 67.6175 31.9472C67.0724 33.517 66.4764 35.0481 65.921 36.6084C65.8491 36.8227 65.7668 37.0376 65.6948 37.2616H69.3242ZM59.2491 29.9775C60.1435 29.9971 61.0378 30.0361 61.9119 29.9971C63.3924 29.9385 64.7799 29.6361 65.9214 28.5928C66.6718 27.9201 67.309 26.9255 67.7923 25.4822C67.9668 22.6151 67.1753 21.2209 65.9214 20.5576C65.1197 20.1381 64.1119 20.0211 63.0534 20.002C62.6729 20.9868 62.2924 21.9814 61.9123 22.976C61.0291 25.3114 60.1414 27.6452 59.2491 29.9775Z" fill="white"/>
<path fill-rule="evenodd" clip-rule="evenodd" d="M65.9215 34.5116C65.9626 34.4047 66.0037 34.2872 66.0449 34.1803C66.2403 33.1565 66.1683 32.3858 65.9215 31.8006C65.5307 30.8938 64.6874 30.4743 63.7009 30.3381C63.074 31.8204 62.5084 33.4393 61.9123 35.0188C61.6366 35.7719 61.3453 36.5198 61.0386 37.262C61.3471 37.262 61.6347 37.2523 61.9123 37.2328C63.9576 37.0763 65.2016 36.3451 65.9215 34.5116ZM80.8897 29.8703C81.7738 29.8703 82.5961 29.8898 83.367 29.8797C86.0807 29.8309 88.0655 29.3533 89.2067 25.872C90.3687 21.9326 88.1992 20.0016 85.0436 20.0016C84.4982 21.3474 83.9326 22.6732 83.3674 23.9995C82.5241 25.95 81.6812 27.8908 80.8897 29.8703ZM71.966 34.6969C71.6164 35.555 71.2774 36.4036 70.9278 37.2616H77.2089C79.3064 32.2692 81.3007 27.3738 83.367 22.4102C83.6961 21.6107 84.035 20.8109 84.3752 20.0016H83.367C81.5475 19.9919 79.7178 20.0309 77.8876 20.0016C76.6025 23.2097 75.3277 26.3594 74.0529 29.5289C73.3511 31.2493 72.6555 32.972 71.966 34.6969ZM61.9119 20.8503C62.0353 20.5674 62.1587 20.2849 62.2719 20.002H56.2063C53.8007 25.8041 51.4464 31.4599 49.0511 37.262H55.2297C57.5836 31.7717 59.5988 26.3301 61.9119 20.8503ZM62.7959 30.3381C62.5019 30.3152 62.207 30.3021 61.9119 30.2991C60.4931 30.3085 59.0439 30.7283 58.0052 33.0098C57.1212 35.9057 58.3137 37.0272 60.1023 37.2616C60.7293 35.7891 61.3155 34.1312 61.9119 32.5517C62.1917 31.8085 62.4864 31.0705 62.7959 30.3381ZM85.4024 30.3381C84.7858 31.8302 84.056 33.5466 83.367 35.1749C83.0568 35.8934 82.7553 36.6151 82.4624 37.3401C82.7507 37.301 83.0486 37.2913 83.367 37.2815C84.6216 37.2523 86.061 37.1941 87.5616 34.7461C88.0754 31.7229 87.1507 30.4162 85.4024 30.3381ZM108.226 31.5184H109.438C108.74 33.3223 108.236 35.3017 107.547 37.1153L107.486 37.262H111.217C111.967 35.4387 112.256 33.4296 113.017 31.6062C113.325 31.6062 114.065 31.5965 114.373 31.5965C114.61 31.2063 114.703 30.7287 114.939 30.3385H108.719C108.616 30.7283 108.328 31.1282 108.226 31.5184ZM107.599 30.3381H107.547C106.426 30.3674 105.254 30.2991 104.144 30.3381C103.691 31.4404 103.352 32.6687 102.91 33.7804H101.717C101.645 34.1706 101.225 34.9213 101.163 35.3115L101.934 35.3212H102.314C102.211 35.6818 102.068 36.072 101.934 36.4524C101.831 36.7255 101.738 36.9983 101.666 37.2616H105.49C106.19 35.0383 106.838 32.737 107.547 30.5137C107.557 30.4552 107.578 30.3966 107.599 30.3381ZM107.547 20.3528H94.3166C93.7411 21.718 93.1347 23.0833 92.5481 24.4482C91.8488 26.0573 91.1606 27.647 90.5535 29.1972H115.309C116.44 26.3012 117.858 23.2491 119 20.3528H107.547ZM102.705 30.3381H98.7367C98.0584 32.2298 97.3385 34.336 96.6503 36.2963C96.5367 36.628 96.424 36.9401 96.3113 37.2616H100.125C100.67 35.7696 101.328 34.0535 101.934 32.4151C102.201 31.6936 102.469 30.9917 102.705 30.3381ZM71.966 38.7245H48.5369L45 47.4031H70.8763L71.966 44.8774L74.0533 40.0019L74.5979 38.7245H71.966ZM96.6499 34.0437C97.102 32.8248 97.102 31.8887 96.6499 31.2547C96.2591 30.7182 95.5289 30.3966 94.4598 30.2893C93.925 31.7424 93.2059 33.2735 92.5478 34.775C92.192 35.5689 91.8595 36.3721 91.5506 37.1836C91.8797 37.2226 92.2187 37.2418 92.5478 37.2519C94.1825 37.2616 95.7864 36.706 96.6289 34.0925C96.64 34.0828 96.64 34.0633 96.6499 34.0437ZM84.2617 30.3381C83.9741 30.3381 83.6652 30.3479 83.367 30.3479C82.4624 30.3381 81.5376 30.3089 80.6738 30.3381C78.988 34.4047 77.3018 38.9289 75.6263 43.0052C76.7572 43.0638 77.9908 42.9857 79.1217 43.0442C80.5401 39.6118 81.9589 36.0329 83.367 32.5419C83.6652 31.8009 83.9634 31.0697 84.2617 30.3381ZM93.535 30.3869C93.2077 30.3468 92.8777 30.3305 92.5478 30.3381C90.3893 30.3771 88.7957 31.401 88.3737 33.4101C87.8389 35.809 88.8266 37.6128 90.8003 37.262C91.3659 35.8285 91.9624 34.3465 92.5478 32.8739C92.8768 32.035 93.2158 31.1965 93.535 30.3869Z" fill="white"/>
</svg>
