<svg width="165" height="67" viewBox="0 0 165 67" fill="none" xmlns="http://www.w3.org/2000/svg">
<path d="M95.297 21.5543V22.5937H104.195C104.788 22.5937 105.678 22.5937 106.262 23.1881C106.846 23.7825 106.855 24.6741 106.855 25.2595V34.1756C106.855 34.77 106.855 35.6617 106.262 36.2471C105.669 36.8415 104.779 36.8415 104.195 36.8415H99.8986C99.1581 36.8415 98.1928 36.8415 97.8315 36.0237C97.4612 35.2059 97.9796 34.4638 98.4247 33.8622L104.213 26.1349H95.315L91.756 30.8902C91.1592 31.6863 90.6433 32.3762 90.6433 33.2678C90.6433 34.1594 91.1232 34.8007 91.756 35.6454L92.6457 36.8343C93.5355 38.0231 94.4253 39.2119 95.6116 39.8063C96.798 40.4007 98.2 40.4007 100.141 40.4007H103.988C106.217 40.4007 109.542 40.4007 111.771 38.1672C114 35.9336 114 32.6734 114 31.4846V27.9181C114 26.7293 114 23.4691 111.771 21.2355C109.542 19.002 106.217 19.002 103.988 19.002L97.8405 19C97.2473 18.9998 96.5068 19 95.9172 19.5944C95.324 20.1888 95.324 20.9309 95.324 21.5217" fill="white"/>
<path d="M84.6918 26.165H93.4995L82.8943 40.4669H74.0865L84.6918 26.165Z" fill="white"/>
<path d="M50 28.6868C50 28.0924 50 27.3503 50.5932 26.7594C51.1864 26.1686 51.9269 26.165 52.5165 26.165H67.4178C69.3411 26.165 70.7611 26.165 71.9475 26.7594C73.1338 27.3539 74.0146 28.5427 74.9134 29.7315L75.8031 30.9203C76.434 31.7633 76.9158 32.4063 76.9158 33.2979C76.9158 34.1896 76.3999 34.8794 75.8031 35.6756L72.2441 40.4309H63.3464L69.1344 32.7035C69.5784 32.1091 70.0979 31.367 69.7276 30.5421C69.3573 29.7243 68.3938 29.7243 67.6604 29.7243H60.6861V47.5566H53.568V29.7243H50.009V28.6832" fill="white"/>
</svg>
