<svg width="165" height="67" viewBox="0 0 165 67" fill="none" xmlns="http://www.w3.org/2000/svg">
<path d="M60.7276 49.833H58.4158L53.6671 38.536H56.9835L59.6566 45.7282H59.7036L62.3288 38.536H65.4551L60.7276 49.833Z" fill="white"/>
<path d="M83.0727 41.456C82.4996 41.1239 81.9528 41.052 81.6416 41.052C80.9737 41.052 80.3538 41.289 79.5659 41.9307V49.7632H76.3429V38.536H79.0643L79.4222 39.6992C80.4502 38.7981 81.33 38.2756 82.5241 38.2756C83.0727 38.2756 83.7423 38.4418 84.2414 38.7981L83.0727 41.456Z" fill="white"/>
<path d="M87.8151 50C85.8818 50 84.4263 49.5483 83.3513 48.8842L84.355 46.5586C85.3087 47.2218 86.4324 47.6026 87.5053 47.6026C88.6027 47.6026 89.2951 47.247 89.2951 46.582C89.2951 44.8019 84.0679 45.5146 84.0679 41.7169C84.0679 39.6516 85.7384 38.2755 88.4818 38.2755C89.9872 38.2755 91.0366 38.4891 91.9661 38.8455V41.5034C90.9411 41.0985 89.8438 40.7432 88.6272 40.7432C87.6958 40.7432 87.1939 41.0033 87.1939 41.55C87.1939 43.0922 92.5148 42.523 92.5148 46.44C92.5148 49.0269 90.2245 50 87.8151 50Z" fill="white"/>
<path d="M97.5348 50C95.4336 50 94.646 48.8133 94.646 47.2938V41.3484H92.57V38.8306H94.646V35.9256L97.8685 34.9751V38.8306H101.4L100.764 41.3484H97.8685V46.0847C97.8685 46.9132 98.2015 47.317 98.9423 47.317C99.6328 47.317 100.349 47.01 100.779 46.7472L101.615 48.7424C100.327 49.6679 98.6547 50 97.5348 50Z" fill="white"/>
<path d="M108.348 44.6835L106.941 44.7303C105.557 44.7787 104.888 45.2536 104.888 46.1078C104.888 46.9607 105.508 47.5074 106.607 47.5074C107.465 47.5074 108.038 47.2218 108.348 46.9848V44.6835ZM109.136 49.7631L108.634 48.789C107.895 49.4542 106.894 50 105.436 50C103.289 50 101.669 48.5764 101.669 46.3429C101.669 43.9708 103.6 42.7366 106.462 42.6414L108.372 42.5715C108.372 42.523 108.372 42.4287 108.372 42.3804C108.372 41.1954 107.418 40.6964 106.298 40.6964C105.152 40.6964 104.171 41.0283 103.41 41.4559L102.429 39.5098C103.981 38.5106 105.461 38.2755 106.988 38.2755C109.996 38.2755 111.666 39.4856 111.666 42.4519V49.777L109.136 49.7631Z" fill="white"/>
<path d="M116.331 49.7769V31.7369L113.086 32.7127V49.7769H116.331Z" fill="white"/>
<path d="M37.2586 50C34.9883 50 33.3671 49.2639 32 48.4318L33.4345 45.7562C34.5226 46.4887 36.0688 47.3161 37.0717 47.3161C38.1051 47.3161 39.4532 46.9794 39.4532 45.7881C39.4532 43.7235 35.7291 43.3542 33.8197 41.1954C33.2254 40.5071 32.8185 39.6283 32.8185 38.4174C32.8185 36.0451 34.7035 33.9544 38.1636 33.9544C39.8346 33.9544 41.2169 34.3828 42.1259 34.9052L42.0781 37.9007C40.7415 37.1889 39.472 36.5648 38.1823 36.5648C37.0133 36.5648 36.2423 37.0815 36.2423 37.9827C36.2423 40.6888 43.0074 40.4575 43.0074 45.3719C43.0074 48.2201 40.4779 50 37.2586 50Z" fill="white"/>
<path d="M70.0069 40.6308C68.7228 40.6308 67.9855 41.8118 67.9855 42.8306H72.0504C71.9782 41.765 71.3846 40.6308 70.0069 40.6308ZM68.0567 45.0282C68.128 46.5405 69.5537 47.4389 71.0506 47.4389C72.1442 47.4389 72.978 47.227 74.2414 46.6357L74.9787 48.6691C73.4058 49.6376 71.8599 49.9697 70.5281 49.9697C66.4895 49.9697 64.8229 47.1309 64.8229 44.2008C64.8229 41.0329 66.7258 38.2892 70.1005 38.2892C73.1911 38.2892 75.331 40.583 75.331 44.0588C75.331 44.2736 75.331 44.6021 75.331 45.0282H68.0567Z" fill="white"/>
<path d="M48.9641 40.6308C47.6802 40.6308 46.9449 41.8118 46.9449 42.8306H51.0099C50.9386 41.765 50.342 40.6308 48.9641 40.6308ZM47.0142 45.0282C47.0865 46.5405 48.5131 47.4389 50.011 47.4389C51.1046 47.4389 51.9355 47.227 53.2008 46.6357L53.9381 48.6691C52.3633 49.6376 50.8176 49.9697 49.4866 49.9697C45.4462 49.9697 43.7832 47.1309 43.7832 44.2008C43.7832 41.0329 45.6852 38.2892 49.0581 38.2892C52.1485 38.2892 54.2889 40.583 54.2889 44.0588C54.2889 44.2736 54.2889 44.6021 54.2889 45.0282H47.0142Z" fill="white"/>
<path d="M129.875 28.8495C130.082 28.7842 130.283 28.6762 130.478 28.5379C130.778 27.7693 131.056 26.9128 131.305 25.9614H131.304C131.632 24.7003 131.831 23.5621 131.928 22.5396C132.026 21.5022 132.019 20.5843 131.936 19.7745C131.847 18.9275 131.622 18.0636 131.114 17.5674C130.607 17.0711 129.737 16.8622 128.882 16.7894C128.7 16.7759 128.511 16.7661 128.318 16.76H127.412C127 16.7724 126.566 16.8018 126.11 16.851C126.329 16.9499 126.524 17.0711 126.685 17.2147C127.194 17.6793 127.432 18.4685 127.535 19.2428C127.61 19.8063 127.642 20.4257 127.62 21.1029C127.584 22.1981 127.407 23.4463 127.039 24.8624C126.755 25.9557 126.419 26.9035 126.051 27.7282C126.622 28.0772 127.167 28.3552 127.685 28.5679C128.412 28.8664 129.22 29.0567 129.875 28.8495Z" fill="white"/>
<path d="M117.846 26.5048C117.799 26.7156 117.794 26.9452 117.816 27.1841C118.335 27.8239 118.939 28.4882 119.641 29.1766C120.58 30.0928 121.478 30.8315 122.324 31.4247C123.176 32.0238 123.976 32.4753 124.716 32.813C125.494 33.1711 126.362 33.4008 127.047 33.2123C127.733 33.022 128.351 32.3744 128.842 31.6749C129.31 31.0088 129.763 30.2083 130.182 29.2549C129.983 29.3968 129.778 29.5087 129.567 29.574C128.91 29.7812 128.103 29.5909 127.377 29.2923C126.848 29.0758 126.293 28.7941 125.713 28.436C124.78 27.8576 123.781 27.0813 122.731 26.0571V26.0552C121.922 25.2641 121.266 24.503 120.732 23.7734C120.143 24.0889 119.63 24.4188 119.187 24.7586C118.564 25.2363 117.994 25.8349 117.846 26.5048Z" fill="white"/>
<path d="M125.896 17.2989C125.744 17.1609 125.556 17.0451 125.35 16.9501C124.524 17.0731 123.635 17.2598 122.672 17.5246C121.414 17.8717 120.325 18.2692 119.387 18.6963C118.443 19.1274 117.651 19.588 116.991 20.0603C116.288 20.562 115.638 21.1929 115.458 21.8851C115.28 22.5772 115.54 23.4411 115.909 24.2189C116.255 24.9503 116.725 25.7358 117.34 26.5679C117.316 26.3234 117.322 26.0902 117.37 25.8757C117.518 25.2079 118.088 24.6069 118.709 24.1293C119.161 23.7842 119.683 23.4483 120.285 23.1274C121.255 22.6107 122.433 22.1386 123.851 21.7468C124.941 21.4465 125.931 21.2619 126.832 21.1665C126.852 20.4968 126.82 19.883 126.745 19.3269C126.642 18.5527 126.405 17.7618 125.896 17.2989Z" fill="white"/>
</svg>
