<svg width="48" height="48" viewBox="0 0 48 48" fill="none" xmlns="http://www.w3.org/2000/svg">
<rect width="48" height="48" rx="24" fill="white"/>
<path fill-rule="evenodd" clip-rule="evenodd" d="M17.358 23.5289C21.4923 21.7276 24.2492 20.5401 25.6286 19.9664C29.567 18.3282 30.3854 18.0437 30.9188 18.0343C31.0361 18.0322 31.2985 18.0613 31.4684 18.1992C31.6119 18.3156 31.6513 18.4728 31.6702 18.5832C31.6891 18.6936 31.7126 18.9451 31.6939 19.1415C31.4805 21.384 30.557 26.826 30.0872 29.3376C29.8884 30.4004 29.4969 30.7567 29.118 30.7916C28.2944 30.8674 27.669 30.2473 26.8714 29.7244C25.6232 28.9062 24.918 28.3969 23.7064 27.5985C22.3062 26.6758 23.2139 26.1686 24.0119 25.3398C24.2207 25.1229 27.8494 21.8224 27.9196 21.5229C27.9284 21.4855 27.9366 21.3459 27.8536 21.2722C27.7707 21.1985 27.6483 21.2237 27.56 21.2438C27.4348 21.2722 25.4408 22.5901 21.578 25.1976C21.012 25.5863 20.4993 25.7757 20.04 25.7657C19.5336 25.7548 18.5596 25.4794 17.8355 25.244C16.9473 24.9553 16.2415 24.8027 16.3029 24.3124C16.3349 24.057 16.6866 23.7959 17.358 23.5289Z" fill="#259CD8"/>
</svg>
