<svg width="165" height="67" viewBox="0 0 165 67" fill="none" xmlns="http://www.w3.org/2000/svg">
<path fill-rule="evenodd" clip-rule="evenodd" d="M82.4997 15C92.6789 15 101 23.3205 101 33.5175C101 43.6969 92.6792 52 82.4997 52C72.3203 52 64 43.6967 64 33.5172C64 23.3205 72.3203 15 82.4997 15ZM70.1142 23.5637L76.7499 40.7782L79.1817 34.4899H85.5568L87.9884 40.7782L94.6937 23.3552C93.5105 21.9277 92.088 20.717 90.4898 19.7771L85.8347 32.5966H79.2683L74.596 19.7247C72.8762 20.7149 71.365 22.0178 70.1142 23.5637ZM97.3692 27.8891L89.8126 47.605C94.8853 44.9472 98.3763 39.6319 98.3763 33.5175C98.3763 31.5371 98.0292 29.6435 97.3692 27.8891ZM86.5121 48.8903L86.4605 48.4907L82.3605 37.8598L78.2611 48.4907L78.2439 48.8209C79.5988 49.2028 81.0232 49.3941 82.4997 49.3941C83.8892 49.3941 85.2268 49.2205 86.5121 48.8903ZM74.8738 47.4312L67.5088 28.2366C66.9182 29.8867 66.6054 31.6585 66.6054 33.5172C66.6054 39.4927 69.9406 44.7384 74.8738 47.4312ZM82.4997 17.6229C83.8892 17.6229 85.2615 17.7967 86.5645 18.1439L82.5519 29.2439L78.5218 18.1267C79.821 17.7905 81.1577 17.6212 82.4997 17.6229Z" fill="white"/>
</svg>
