<svg width="48" height="48" viewBox="0 0 48 48" fill="none" xmlns="http://www.w3.org/2000/svg">
<rect width="48" height="48" rx="24" fill="#25CB63"/>
<path d="M15 33L16.2722 28.3802C15.4857 27.0242 15.0731 25.4886 15.0774 23.9187C15.0774 18.9995 19.1003 15 24.0387 15C26.437 15 28.6891 15.9282 30.3782 17.6136C32.0716 19.299 33.0043 21.5404 33 23.923C33 28.8422 28.9771 32.8417 24.0344 32.8417H24.0301C22.5301 32.8417 21.0559 32.4653 19.745 31.7552L15 33ZM19.9728 30.1426L20.2435 30.3051C21.3868 30.981 22.6977 31.336 24.0344 31.3403H24.0387C28.1433 31.3403 31.4871 28.0166 31.4871 23.9273C31.4871 21.9468 30.7135 20.086 29.308 18.683C27.9026 17.2799 26.0286 16.51 24.0387 16.51C19.9341 16.5057 16.5903 19.8294 16.5903 23.9187C16.5903 25.3175 16.9814 26.682 17.7292 27.8626L17.9054 28.145L17.1533 30.8783L19.9728 30.1426Z" fill="white"/>
<path d="M15 33L16.2722 28.3802C15.4857 27.0242 15.0731 25.4886 15.0774 23.9187C15.0774 18.9995 19.1003 15 24.0387 15C26.437 15 28.6891 15.9282 30.3782 17.6136C32.0716 19.299 33.0043 21.5404 33 23.923C33 28.8422 28.9771 32.8417 24.0344 32.8417H24.0301C22.5301 32.8417 21.0559 32.4653 19.745 31.7552L15 33ZM19.9728 30.1426L20.2435 30.3051C21.3868 30.981 22.6977 31.336 24.0344 31.3403H24.0387C28.1433 31.3403 31.4871 28.0166 31.4871 23.9273C31.4871 21.9468 30.7135 20.086 29.308 18.683C27.9026 17.2799 26.0286 16.51 24.0387 16.51C19.9341 16.5057 16.5903 19.8294 16.5903 23.9187C16.5903 25.3175 16.9814 26.682 17.7292 27.8626L17.9054 28.145L17.1533 30.8783L19.9728 30.1426Z" fill="white"/>
<path fill-rule="evenodd" clip-rule="evenodd" d="M21.7993 20.1886C21.6317 19.8164 21.4555 19.8079 21.2965 19.8036C21.1675 19.7993 21.0171 19.7993 20.8667 19.7993C20.7163 19.7993 20.4756 19.8549 20.2693 20.0774C20.063 20.2998 19.487 20.8388 19.487 21.9381C19.487 23.0332 20.2908 24.094 20.4025 24.2437C20.5142 24.3934 21.9541 26.7161 24.2277 27.6102C26.1188 28.3545 26.5056 28.2047 26.914 28.1662C27.3223 28.1277 28.2377 27.6273 28.4269 27.1054C28.6117 26.5835 28.6117 26.1387 28.5558 26.0446C28.4999 25.9505 28.3495 25.8949 28.126 25.7836C27.9025 25.6724 26.8022 25.1334 26.5959 25.0564C26.3896 24.9837 26.2392 24.9452 26.093 25.1677C25.9426 25.3901 25.5128 25.8906 25.3839 26.0403C25.2549 26.19 25.1217 26.2071 24.8982 26.0959C24.6747 25.9847 23.9526 25.7494 23.0973 24.988C22.4312 24.3977 21.9799 23.6662 21.8509 23.4438C21.722 23.2214 21.838 23.1016 21.9498 22.9904C22.0486 22.892 22.1733 22.7294 22.285 22.6011C22.3968 22.4728 22.4355 22.3787 22.5085 22.229C22.5816 22.0793 22.5472 21.9509 22.4913 21.8397C22.4355 21.7328 21.9971 20.6292 21.7993 20.1886Z" fill="white"/>
</svg>
