<svg width="48" height="48" viewBox="0 0 48 48" fill="none" xmlns="http://www.w3.org/2000/svg">
<path d="M16.7574 23.7573H20.7574V27.7573H24.7574V23.7573H28.7574V19.7573H24.7574V15.7573H20.7574V19.7573H16.7574V23.7573Z" fill="white"/>
<path fill-rule="evenodd" clip-rule="evenodd" d="M22.7574 33.7573C24.8293 33.7573 26.7786 33.2322 28.4794 32.3078L34.4142 38.2426L37.2426 35.4142L31.6468 29.8183C33.5796 27.6882 34.7574 24.8603 34.7574 21.7573C34.7574 15.1299 29.3848 9.75732 22.7574 9.75732C16.1299 9.75732 10.7574 15.1299 10.7574 21.7573C10.7574 28.3847 16.1299 33.7573 22.7574 33.7573ZM22.7574 29.7573C27.1756 29.7573 30.7574 26.1756 30.7574 21.7573C30.7574 17.339 27.1756 13.7573 22.7574 13.7573C18.3391 13.7573 14.7574 17.339 14.7574 21.7573C14.7574 26.1756 18.3391 29.7573 22.7574 29.7573Z" fill="white"/>
</svg>
